<?xml version="1.0" encoding="UTF-8"?>
<svg id="Layer_1" data-name="Layer 1" xmlns="http://www.w3.org/2000/svg" viewBox="100 350 900 450">
  <defs>
    <style>
      .cls-1 {
        fill: #305b99;
      }

      .cls-1, .cls-2, .cls-3 {
        stroke-width: 0px;
      }

      .cls-2 {
        fill: #5b66af;
      }
    </style>
  </defs>
  <g>
    <polygon class="cls-2" points="947.67 500.78 902.38 579.22 857.08 657.67 766.48 657.67 811.77 579.22 857.07 500.78 766.48 500.78 721.19 579.22 675.88 657.67 585.3 657.67 630.59 579.22 539.99 579.22 585.28 500.78 675.88 500.78 675.88 500.76 721.17 422.31 902.38 422.31 902.38 422.33 947.67 500.78"/>
    <polygon class="cls-1" points="494.7 500.78 449.41 579.22 494.7 657.67 494.7 657.69 404.1 657.69 404.1 657.67 358.81 579.22 404.1 500.78 313.52 500.78 268.23 579.22 222.92 657.69 132.33 657.69 177.62 579.24 177.64 579.22 222.93 500.78 268.23 422.33 268.23 422.31 539.99 422.31 494.7 500.78"/>
  </g>
</svg>